# xmcd CD database file
#
# Track frame offsets:
#	150
#	17877
#	38980
#	52067
#	67427
#	84155
#	95322
#	109900
#	126985
#	142362
#	157875
#	184102
#
# Disc length: 2862 seconds
#
# Revision: 0
# Processed by: cddbd v1.4PL0 Copyright (c) Steve Scherf et al.
# Submitted via: CDex 1.50beta8
#
DISCID=af0b2c0c
DTITLE=Dan Brodie and The broken Arrows - empty arms broken hearts
DYEAR=2003
DGENRE=Blues
TTITLE0=jesus try and save me
TTITLE1=fell from the sky
TTITLE2=take a bullet
TTITLE3=hope that we get hoem tongiht
TTITLE4=goo to see you
TTITLE5=sarah
TTITLE6=footstomp
TTITLE7=you're not invited
TTITLE8=too much of you in my head
TTITLE9=highway lovin man
TTITLE10=for me and you
TTITLE11=jesus try and save me (enhanced video)
EXTD=YEAR: 2003
EXTT0=
EXTT1=
EXTT2=
EXTT3=
EXTT4=
EXTT5=
EXTT6=
EXTT7=
EXTT8=
EXTT9=
EXTT10=
EXTT11=
PLAYORDER=
